<mxfile host="app.diagrams.net" modified="2023-08-09T11:31:35.250Z" agent="Mozilla/5.0 (Windows NT 10.0; Win64; x64) AppleWebKit/537.36 (KHTML, like Gecko) Chrome/115.0.0.0 Safari/537.36" etag="eDxdGuZmFUhN_WFexvWe" version="21.1.1" type="github">
  <diagram id="C5RBs43oDa-KdzZeNtuy" name="Page-1">
    <mxGraphModel dx="780" dy="410" grid="1" gridSize="10" guides="1" tooltips="1" connect="1" arrows="1" fold="1" page="1" pageScale="1" pageWidth="827" pageHeight="1169" math="0" shadow="0">
      <root>
        <mxCell id="WIyWlLk6GJQsqaUBKTNV-0" />
        <mxCell id="WIyWlLk6GJQsqaUBKTNV-1" parent="WIyWlLk6GJQsqaUBKTNV-0" />
        <mxCell id="RyZNCgzlQGEo0C-rfPGr-2" value="" style="edgeStyle=orthogonalEdgeStyle;rounded=0;orthogonalLoop=1;jettySize=auto;html=1;" edge="1" parent="WIyWlLk6GJQsqaUBKTNV-1" source="RyZNCgzlQGEo0C-rfPGr-0" target="RyZNCgzlQGEo0C-rfPGr-1">
          <mxGeometry relative="1" as="geometry" />
        </mxCell>
        <mxCell id="RyZNCgzlQGEo0C-rfPGr-0" value="BAC" style="rounded=1;whiteSpace=wrap;html=1;fontSize=12;glass=0;strokeWidth=1;shadow=0;" vertex="1" parent="WIyWlLk6GJQsqaUBKTNV-1">
          <mxGeometry x="155" y="40" width="120" height="40" as="geometry" />
        </mxCell>
        <mxCell id="RyZNCgzlQGEo0C-rfPGr-6" value="" style="edgeStyle=orthogonalEdgeStyle;rounded=0;orthogonalLoop=1;jettySize=auto;html=1;" edge="1" parent="WIyWlLk6GJQsqaUBKTNV-1" source="RyZNCgzlQGEo0C-rfPGr-1" target="RyZNCgzlQGEo0C-rfPGr-5">
          <mxGeometry relative="1" as="geometry" />
        </mxCell>
        <mxCell id="RyZNCgzlQGEo0C-rfPGr-1" value="What is your name?" style="rounded=1;whiteSpace=wrap;html=1;fontSize=12;glass=0;strokeWidth=1;shadow=0;" vertex="1" parent="WIyWlLk6GJQsqaUBKTNV-1">
          <mxGeometry x="155" y="110" width="120" height="40" as="geometry" />
        </mxCell>
        <mxCell id="RyZNCgzlQGEo0C-rfPGr-8" value="" style="edgeStyle=orthogonalEdgeStyle;rounded=0;orthogonalLoop=1;jettySize=auto;html=1;" edge="1" parent="WIyWlLk6GJQsqaUBKTNV-1" source="RyZNCgzlQGEo0C-rfPGr-5" target="RyZNCgzlQGEo0C-rfPGr-7">
          <mxGeometry relative="1" as="geometry" />
        </mxCell>
        <mxCell id="RyZNCgzlQGEo0C-rfPGr-5" value="What is your email?" style="rounded=1;whiteSpace=wrap;html=1;fontSize=12;glass=0;strokeWidth=1;shadow=0;" vertex="1" parent="WIyWlLk6GJQsqaUBKTNV-1">
          <mxGeometry x="155" y="180" width="120" height="40" as="geometry" />
        </mxCell>
        <mxCell id="RyZNCgzlQGEo0C-rfPGr-10" value="" style="edgeStyle=orthogonalEdgeStyle;rounded=0;orthogonalLoop=1;jettySize=auto;html=1;" edge="1" parent="WIyWlLk6GJQsqaUBKTNV-1" source="RyZNCgzlQGEo0C-rfPGr-7" target="RyZNCgzlQGEo0C-rfPGr-9">
          <mxGeometry relative="1" as="geometry" />
        </mxCell>
        <mxCell id="RyZNCgzlQGEo0C-rfPGr-7" value="What is your Phone No?" style="rounded=1;whiteSpace=wrap;html=1;fontSize=12;glass=0;strokeWidth=1;shadow=0;" vertex="1" parent="WIyWlLk6GJQsqaUBKTNV-1">
          <mxGeometry x="155" y="250" width="120" height="40" as="geometry" />
        </mxCell>
        <mxCell id="RyZNCgzlQGEo0C-rfPGr-12" value="" style="edgeStyle=orthogonalEdgeStyle;rounded=0;orthogonalLoop=1;jettySize=auto;html=1;" edge="1" parent="WIyWlLk6GJQsqaUBKTNV-1" source="RyZNCgzlQGEo0C-rfPGr-9" target="RyZNCgzlQGEo0C-rfPGr-11">
          <mxGeometry relative="1" as="geometry" />
        </mxCell>
        <mxCell id="RyZNCgzlQGEo0C-rfPGr-9" value="What is your weight in KG?" style="rounded=1;whiteSpace=wrap;html=1;fontSize=12;glass=0;strokeWidth=1;shadow=0;" vertex="1" parent="WIyWlLk6GJQsqaUBKTNV-1">
          <mxGeometry x="155" y="320" width="120" height="40" as="geometry" />
        </mxCell>
        <mxCell id="RyZNCgzlQGEo0C-rfPGr-14" value="" style="edgeStyle=orthogonalEdgeStyle;rounded=0;orthogonalLoop=1;jettySize=auto;html=1;" edge="1" parent="WIyWlLk6GJQsqaUBKTNV-1" source="RyZNCgzlQGEo0C-rfPGr-11" target="RyZNCgzlQGEo0C-rfPGr-13">
          <mxGeometry relative="1" as="geometry" />
        </mxCell>
        <mxCell id="RyZNCgzlQGEo0C-rfPGr-11" value="What is the time since first drink? (approx hrs from drink start til now)" style="rounded=1;whiteSpace=wrap;html=1;fontSize=12;glass=0;strokeWidth=1;shadow=0;" vertex="1" parent="WIyWlLk6GJQsqaUBKTNV-1">
          <mxGeometry x="150" y="400" width="130" height="60" as="geometry" />
        </mxCell>
        <mxCell id="RyZNCgzlQGEo0C-rfPGr-21" value="" style="edgeStyle=orthogonalEdgeStyle;rounded=0;orthogonalLoop=1;jettySize=auto;html=1;" edge="1" parent="WIyWlLk6GJQsqaUBKTNV-1" source="RyZNCgzlQGEo0C-rfPGr-13" target="RyZNCgzlQGEo0C-rfPGr-20">
          <mxGeometry relative="1" as="geometry" />
        </mxCell>
        <mxCell id="RyZNCgzlQGEo0C-rfPGr-13" value="What is the amount of drink you consume?" style="rounded=1;whiteSpace=wrap;html=1;fontSize=12;glass=0;strokeWidth=1;shadow=0;" vertex="1" parent="WIyWlLk6GJQsqaUBKTNV-1">
          <mxGeometry x="150" y="490" width="130" height="60" as="geometry" />
        </mxCell>
        <mxCell id="RyZNCgzlQGEo0C-rfPGr-23" value="" style="edgeStyle=orthogonalEdgeStyle;rounded=0;orthogonalLoop=1;jettySize=auto;html=1;" edge="1" parent="WIyWlLk6GJQsqaUBKTNV-1" source="RyZNCgzlQGEo0C-rfPGr-20" target="RyZNCgzlQGEo0C-rfPGr-22">
          <mxGeometry relative="1" as="geometry" />
        </mxCell>
        <mxCell id="RyZNCgzlQGEo0C-rfPGr-20" value="Show Result" style="rounded=1;whiteSpace=wrap;html=1;fontSize=12;glass=0;strokeWidth=1;shadow=0;" vertex="1" parent="WIyWlLk6GJQsqaUBKTNV-1">
          <mxGeometry x="150" y="580" width="130" height="60" as="geometry" />
        </mxCell>
        <mxCell id="RyZNCgzlQGEo0C-rfPGr-25" value="" style="edgeStyle=orthogonalEdgeStyle;rounded=0;orthogonalLoop=1;jettySize=auto;html=1;" edge="1" parent="WIyWlLk6GJQsqaUBKTNV-1" source="RyZNCgzlQGEo0C-rfPGr-22" target="RyZNCgzlQGEo0C-rfPGr-24">
          <mxGeometry relative="1" as="geometry" />
        </mxCell>
        <mxCell id="RyZNCgzlQGEo0C-rfPGr-30" value="" style="edgeStyle=orthogonalEdgeStyle;rounded=0;orthogonalLoop=1;jettySize=auto;html=1;" edge="1" parent="WIyWlLk6GJQsqaUBKTNV-1" source="RyZNCgzlQGEo0C-rfPGr-22" target="RyZNCgzlQGEo0C-rfPGr-29">
          <mxGeometry relative="1" as="geometry" />
        </mxCell>
        <mxCell id="RyZNCgzlQGEo0C-rfPGr-56" style="edgeStyle=orthogonalEdgeStyle;rounded=0;orthogonalLoop=1;jettySize=auto;html=1;entryX=0.5;entryY=0;entryDx=0;entryDy=0;" edge="1" parent="WIyWlLk6GJQsqaUBKTNV-1" source="RyZNCgzlQGEo0C-rfPGr-22" target="RyZNCgzlQGEo0C-rfPGr-58">
          <mxGeometry relative="1" as="geometry">
            <mxPoint x="60" y="760" as="targetPoint" />
          </mxGeometry>
        </mxCell>
        <mxCell id="RyZNCgzlQGEo0C-rfPGr-22" value="Check BAC" style="rhombus;whiteSpace=wrap;html=1;rounded=1;glass=0;strokeWidth=1;shadow=0;" vertex="1" parent="WIyWlLk6GJQsqaUBKTNV-1">
          <mxGeometry x="175" y="670" width="80" height="80" as="geometry" />
        </mxCell>
        <mxCell id="RyZNCgzlQGEo0C-rfPGr-28" value="" style="edgeStyle=orthogonalEdgeStyle;rounded=0;orthogonalLoop=1;jettySize=auto;html=1;" edge="1" parent="WIyWlLk6GJQsqaUBKTNV-1" source="RyZNCgzlQGEo0C-rfPGr-24" target="RyZNCgzlQGEo0C-rfPGr-27">
          <mxGeometry relative="1" as="geometry" />
        </mxCell>
        <mxCell id="RyZNCgzlQGEo0C-rfPGr-24" value="Normal Drink" style="whiteSpace=wrap;html=1;rounded=1;glass=0;strokeWidth=1;shadow=0;" vertex="1" parent="WIyWlLk6GJQsqaUBKTNV-1">
          <mxGeometry x="450" y="680" width="120" height="60" as="geometry" />
        </mxCell>
        <mxCell id="RyZNCgzlQGEo0C-rfPGr-26" value="BAC &amp;gt;=0 &amp;amp;&amp;amp; BAC &amp;lt; 0.029" style="text;html=1;strokeColor=none;fillColor=none;align=center;verticalAlign=middle;whiteSpace=wrap;rounded=0;" vertex="1" parent="WIyWlLk6GJQsqaUBKTNV-1">
          <mxGeometry x="269" y="680" width="145" height="30" as="geometry" />
        </mxCell>
        <mxCell id="RyZNCgzlQGEo0C-rfPGr-34" value="" style="edgeStyle=orthogonalEdgeStyle;rounded=0;orthogonalLoop=1;jettySize=auto;html=1;" edge="1" parent="WIyWlLk6GJQsqaUBKTNV-1" source="RyZNCgzlQGEo0C-rfPGr-27" target="RyZNCgzlQGEo0C-rfPGr-33">
          <mxGeometry relative="1" as="geometry" />
        </mxCell>
        <mxCell id="RyZNCgzlQGEo0C-rfPGr-40" style="edgeStyle=orthogonalEdgeStyle;rounded=0;orthogonalLoop=1;jettySize=auto;html=1;exitX=0;exitY=1;exitDx=0;exitDy=0;entryX=1;entryY=0.5;entryDx=0;entryDy=0;" edge="1" parent="WIyWlLk6GJQsqaUBKTNV-1" source="RyZNCgzlQGEo0C-rfPGr-27" target="RyZNCgzlQGEo0C-rfPGr-37">
          <mxGeometry relative="1" as="geometry" />
        </mxCell>
        <mxCell id="RyZNCgzlQGEo0C-rfPGr-46" value="" style="edgeStyle=orthogonalEdgeStyle;rounded=0;orthogonalLoop=1;jettySize=auto;html=1;" edge="1" parent="WIyWlLk6GJQsqaUBKTNV-1" source="RyZNCgzlQGEo0C-rfPGr-27" target="RyZNCgzlQGEo0C-rfPGr-45">
          <mxGeometry relative="1" as="geometry" />
        </mxCell>
        <mxCell id="RyZNCgzlQGEo0C-rfPGr-27" value="Do you want &lt;br&gt;to Book a Cab" style="rhombus;whiteSpace=wrap;html=1;rounded=1;glass=0;strokeWidth=1;shadow=0;" vertex="1" parent="WIyWlLk6GJQsqaUBKTNV-1">
          <mxGeometry x="450" y="767" width="120" height="130" as="geometry" />
        </mxCell>
        <mxCell id="RyZNCgzlQGEo0C-rfPGr-32" style="edgeStyle=orthogonalEdgeStyle;rounded=0;orthogonalLoop=1;jettySize=auto;html=1;" edge="1" parent="WIyWlLk6GJQsqaUBKTNV-1" source="RyZNCgzlQGEo0C-rfPGr-29" target="RyZNCgzlQGEo0C-rfPGr-27">
          <mxGeometry relative="1" as="geometry" />
        </mxCell>
        <mxCell id="RyZNCgzlQGEo0C-rfPGr-29" value="Heavy Drink" style="whiteSpace=wrap;html=1;rounded=1;glass=0;strokeWidth=1;shadow=0;" vertex="1" parent="WIyWlLk6GJQsqaUBKTNV-1">
          <mxGeometry x="155" y="802" width="120" height="60" as="geometry" />
        </mxCell>
        <mxCell id="RyZNCgzlQGEo0C-rfPGr-31" value="BAC &amp;gt;=0.029 &amp;amp;&amp;amp; BAC &amp;lt; 0.200" style="text;html=1;strokeColor=none;fillColor=none;align=center;verticalAlign=middle;whiteSpace=wrap;rounded=0;" vertex="1" parent="WIyWlLk6GJQsqaUBKTNV-1">
          <mxGeometry x="220" y="770" width="145" height="30" as="geometry" />
        </mxCell>
        <mxCell id="RyZNCgzlQGEo0C-rfPGr-52" value="" style="edgeStyle=orthogonalEdgeStyle;rounded=0;orthogonalLoop=1;jettySize=auto;html=1;" edge="1" parent="WIyWlLk6GJQsqaUBKTNV-1" source="RyZNCgzlQGEo0C-rfPGr-33" target="RyZNCgzlQGEo0C-rfPGr-51">
          <mxGeometry relative="1" as="geometry" />
        </mxCell>
        <mxCell id="RyZNCgzlQGEo0C-rfPGr-33" value="Action Complete" style="whiteSpace=wrap;html=1;rounded=1;glass=0;strokeWidth=1;shadow=0;" vertex="1" parent="WIyWlLk6GJQsqaUBKTNV-1">
          <mxGeometry x="450" y="930" width="120" height="60" as="geometry" />
        </mxCell>
        <mxCell id="RyZNCgzlQGEo0C-rfPGr-36" value="No &amp;amp;&amp;amp; Normal Drink" style="text;html=1;align=center;verticalAlign=middle;resizable=0;points=[];autosize=1;strokeColor=none;fillColor=none;" vertex="1" parent="WIyWlLk6GJQsqaUBKTNV-1">
          <mxGeometry x="500" y="897" width="130" height="30" as="geometry" />
        </mxCell>
        <mxCell id="RyZNCgzlQGEo0C-rfPGr-37" value="Show Take Rest Message &amp;amp; warning.&amp;nbsp;&lt;br&gt;&lt;br&gt;Provide care taker phone no" style="whiteSpace=wrap;html=1;rounded=1;glass=0;strokeWidth=1;shadow=0;" vertex="1" parent="WIyWlLk6GJQsqaUBKTNV-1">
          <mxGeometry x="155" y="885" width="120" height="90" as="geometry" />
        </mxCell>
        <mxCell id="RyZNCgzlQGEo0C-rfPGr-39" value="No &amp;amp;&amp;amp; Heavy Drink" style="text;html=1;align=center;verticalAlign=middle;resizable=0;points=[];autosize=1;strokeColor=none;fillColor=none;" vertex="1" parent="WIyWlLk6GJQsqaUBKTNV-1">
          <mxGeometry x="313" y="900" width="130" height="30" as="geometry" />
        </mxCell>
        <mxCell id="RyZNCgzlQGEo0C-rfPGr-44" style="edgeStyle=orthogonalEdgeStyle;rounded=0;orthogonalLoop=1;jettySize=auto;html=1;entryX=0;entryY=0.5;entryDx=0;entryDy=0;" edge="1" parent="WIyWlLk6GJQsqaUBKTNV-1" source="RyZNCgzlQGEo0C-rfPGr-43" target="RyZNCgzlQGEo0C-rfPGr-33">
          <mxGeometry relative="1" as="geometry" />
        </mxCell>
        <mxCell id="RyZNCgzlQGEo0C-rfPGr-49" value="" style="edgeStyle=orthogonalEdgeStyle;rounded=0;orthogonalLoop=1;jettySize=auto;html=1;" edge="1" parent="WIyWlLk6GJQsqaUBKTNV-1" source="RyZNCgzlQGEo0C-rfPGr-45" target="RyZNCgzlQGEo0C-rfPGr-48">
          <mxGeometry relative="1" as="geometry" />
        </mxCell>
        <mxCell id="RyZNCgzlQGEo0C-rfPGr-45" value="Ask Address" style="whiteSpace=wrap;html=1;rounded=1;glass=0;strokeWidth=1;shadow=0;" vertex="1" parent="WIyWlLk6GJQsqaUBKTNV-1">
          <mxGeometry x="670" y="802" width="120" height="60" as="geometry" />
        </mxCell>
        <mxCell id="RyZNCgzlQGEo0C-rfPGr-47" value="Yes" style="text;html=1;align=center;verticalAlign=middle;resizable=0;points=[];autosize=1;strokeColor=none;fillColor=none;" vertex="1" parent="WIyWlLk6GJQsqaUBKTNV-1">
          <mxGeometry x="595" y="825" width="40" height="30" as="geometry" />
        </mxCell>
        <mxCell id="RyZNCgzlQGEo0C-rfPGr-50" style="edgeStyle=orthogonalEdgeStyle;rounded=0;orthogonalLoop=1;jettySize=auto;html=1;entryX=1;entryY=0.5;entryDx=0;entryDy=0;" edge="1" parent="WIyWlLk6GJQsqaUBKTNV-1" source="RyZNCgzlQGEo0C-rfPGr-48" target="RyZNCgzlQGEo0C-rfPGr-33">
          <mxGeometry relative="1" as="geometry" />
        </mxCell>
        <mxCell id="RyZNCgzlQGEo0C-rfPGr-48" value="Book Cab &amp;amp; Show message" style="whiteSpace=wrap;html=1;rounded=1;glass=0;strokeWidth=1;shadow=0;" vertex="1" parent="WIyWlLk6GJQsqaUBKTNV-1">
          <mxGeometry x="670" y="930" width="120" height="60" as="geometry" />
        </mxCell>
        <mxCell id="RyZNCgzlQGEo0C-rfPGr-54" value="" style="edgeStyle=orthogonalEdgeStyle;rounded=0;orthogonalLoop=1;jettySize=auto;html=1;" edge="1" parent="WIyWlLk6GJQsqaUBKTNV-1" source="RyZNCgzlQGEo0C-rfPGr-51" target="RyZNCgzlQGEo0C-rfPGr-53">
          <mxGeometry relative="1" as="geometry" />
        </mxCell>
        <mxCell id="RyZNCgzlQGEo0C-rfPGr-51" value="Store Data for future tracking" style="whiteSpace=wrap;html=1;rounded=1;glass=0;strokeWidth=1;shadow=0;" vertex="1" parent="WIyWlLk6GJQsqaUBKTNV-1">
          <mxGeometry x="450" y="1010" width="120" height="60" as="geometry" />
        </mxCell>
        <mxCell id="RyZNCgzlQGEo0C-rfPGr-53" value="Close" style="whiteSpace=wrap;html=1;rounded=1;glass=0;strokeWidth=1;shadow=0;" vertex="1" parent="WIyWlLk6GJQsqaUBKTNV-1">
          <mxGeometry x="450" y="1090" width="120" height="60" as="geometry" />
        </mxCell>
        <mxCell id="RyZNCgzlQGEo0C-rfPGr-55" value="" style="edgeStyle=orthogonalEdgeStyle;rounded=0;orthogonalLoop=1;jettySize=auto;html=1;" edge="1" parent="WIyWlLk6GJQsqaUBKTNV-1" source="RyZNCgzlQGEo0C-rfPGr-37" target="RyZNCgzlQGEo0C-rfPGr-43">
          <mxGeometry relative="1" as="geometry">
            <mxPoint x="215" y="975" as="sourcePoint" />
            <mxPoint x="215" y="1050" as="targetPoint" />
          </mxGeometry>
        </mxCell>
        <mxCell id="RyZNCgzlQGEo0C-rfPGr-43" value="Send Notification to care taker" style="rounded=1;whiteSpace=wrap;html=1;" vertex="1" parent="WIyWlLk6GJQsqaUBKTNV-1">
          <mxGeometry x="155" y="1000" width="120" height="60" as="geometry" />
        </mxCell>
        <mxCell id="RyZNCgzlQGEo0C-rfPGr-57" value="BAC &amp;gt;= 0.200" style="text;html=1;strokeColor=none;fillColor=none;align=center;verticalAlign=middle;whiteSpace=wrap;rounded=0;" vertex="1" parent="WIyWlLk6GJQsqaUBKTNV-1">
          <mxGeometry x="40" y="670" width="145" height="30" as="geometry" />
        </mxCell>
        <mxCell id="RyZNCgzlQGEo0C-rfPGr-60" value="" style="edgeStyle=orthogonalEdgeStyle;rounded=0;orthogonalLoop=1;jettySize=auto;html=1;" edge="1" parent="WIyWlLk6GJQsqaUBKTNV-1" source="RyZNCgzlQGEo0C-rfPGr-58" target="RyZNCgzlQGEo0C-rfPGr-59">
          <mxGeometry relative="1" as="geometry" />
        </mxCell>
        <mxCell id="RyZNCgzlQGEo0C-rfPGr-58" value="Medical Emergency" style="whiteSpace=wrap;html=1;rounded=1;glass=0;strokeWidth=1;shadow=0;" vertex="1" parent="WIyWlLk6GJQsqaUBKTNV-1">
          <mxGeometry x="5" y="790" width="120" height="60" as="geometry" />
        </mxCell>
        <mxCell id="RyZNCgzlQGEo0C-rfPGr-64" value="" style="edgeStyle=orthogonalEdgeStyle;rounded=0;orthogonalLoop=1;jettySize=auto;html=1;" edge="1" parent="WIyWlLk6GJQsqaUBKTNV-1" source="RyZNCgzlQGEo0C-rfPGr-59" target="RyZNCgzlQGEo0C-rfPGr-63">
          <mxGeometry relative="1" as="geometry" />
        </mxCell>
        <mxCell id="RyZNCgzlQGEo0C-rfPGr-59" value="Medical Emergency" style="whiteSpace=wrap;html=1;rounded=1;glass=0;strokeWidth=1;shadow=0;" vertex="1" parent="WIyWlLk6GJQsqaUBKTNV-1">
          <mxGeometry x="5" y="885" width="120" height="60" as="geometry" />
        </mxCell>
        <mxCell id="RyZNCgzlQGEo0C-rfPGr-65" value="" style="edgeStyle=orthogonalEdgeStyle;rounded=0;orthogonalLoop=1;jettySize=auto;html=1;" edge="1" parent="WIyWlLk6GJQsqaUBKTNV-1" source="RyZNCgzlQGEo0C-rfPGr-63" target="RyZNCgzlQGEo0C-rfPGr-43">
          <mxGeometry relative="1" as="geometry" />
        </mxCell>
        <mxCell id="RyZNCgzlQGEo0C-rfPGr-63" value="Send Notification to nearest hospital&lt;br&gt;&lt;br&gt;Provide care taker phone no" style="whiteSpace=wrap;html=1;rounded=1;glass=0;strokeWidth=1;shadow=0;" vertex="1" parent="WIyWlLk6GJQsqaUBKTNV-1">
          <mxGeometry x="5" y="1000" width="120" height="80" as="geometry" />
        </mxCell>
      </root>
    </mxGraphModel>
  </diagram>
</mxfile>
